<?xml version="1.0" encoding="UTF-8"?>
<svg xmlns="http://www.w3.org/2000/svg" xmlns:xlink="http://www.w3.org/1999/xlink" width="528pt" height="528pt" viewBox="0 0 528 528" version="1.1">
<g id="surface1">
<path style=" stroke:none;fill-rule:nonzero;fill:#00C853;fill-opacity:1;" d="M 251.933594 36.144531 C 259.402344 31.953125 268.597656 31.953125 276.054688 36.144531 C 312.960938 56.859375 424.015625 119.207031 460.933594 139.921875 C 468.402344 144.101563 473 151.84375 473 160.226563 C 473 201.652344 473 326.335938 473 367.761719 C 473 376.144531 468.402344 383.890625 460.933594 388.078125 C 424.027344 408.792969 312.972656 471.140625 276.054688 491.855469 C 268.585938 496.046875 259.390625 496.046875 251.933594 491.855469 C 215.027344 471.140625 103.972656 408.792969 67.054688 388.078125 C 59.597656 383.890625 55 376.15625 55 367.773438 C 55 326.347656 55 201.664063 55 160.238281 C 55 151.855469 59.597656 144.109375 67.066406 139.921875 C 103.960938 119.207031 215.039063 56.859375 251.933594 36.144531 Z "/>
<path style=" stroke:none;fill-rule:nonzero;fill:#69F0AE;fill-opacity:1;" d="M 58.34375 378.445313 C 55.417969 374.527344 55 370.808594 55 365.804688 C 55 324.621094 55 200.652344 55 159.457031 C 55 151.117188 59.585938 143.417969 67.035156 139.261719 C 103.808594 118.667969 214.488281 56.683594 251.261719 36.078125 C 258.710938 31.910156 268.796875 32 276.242188 36.167969 C 313.015625 56.761719 423.324219 118.21875 460.097656 138.808594 C 463.066406 140.480469 465.332031 142.492188 467.355469 145.144531 Z "/>
<path style=" stroke:none;fill-rule:nonzero;fill:#FFFFFF;fill-opacity:1;" d="M 264 110 C 178.96875 110 110 178.96875 110 264 C 110 349.03125 178.96875 418 264 418 C 349.03125 418 418 349.03125 418 264 C 418 178.96875 349.03125 110 264 110 Z M 264 341 C 221.539063 341 187 306.460938 187 264 C 187 221.539063 221.539063 187 264 187 C 306.460938 187 341 221.539063 341 264 C 341 306.460938 306.460938 341 264 341 Z "/>
<path style=" stroke:none;fill-rule:nonzero;fill:#00E676;fill-opacity:1;" d="M 467.335938 145.253906 C 473.011719 150.566406 472.902344 158.574219 472.902344 164.878906 C 472.902344 206.625 472.550781 325.359375 473 367.101563 C 473.042969 371.460938 471.601563 376.046875 469.445313 379.5 L 259.523438 264 Z "/>
<path style=" stroke:none;fill-rule:nonzero;fill:#FFFFFF;fill-opacity:1;" d="M 374 220 L 385 220 L 385 308 L 374 308 Z "/>
<path style=" stroke:none;fill-rule:nonzero;fill:#FFFFFF;fill-opacity:1;" d="M 407 220 L 418 220 L 418 308 L 407 308 Z "/>
<path style=" stroke:none;fill-rule:nonzero;fill:#FFFFFF;fill-opacity:1;" d="M 352 275 L 440 275 L 440 286 L 352 286 Z "/>
<path style=" stroke:none;fill-rule:nonzero;fill:#FFFFFF;fill-opacity:1;" d="M 352 242 L 440 242 L 440 253 L 352 253 Z "/>
</g>
</svg>
