<?xml version="1.0" encoding="UTF-8"?>
<svg xmlns="http://www.w3.org/2000/svg" xmlns:xlink="http://www.w3.org/1999/xlink" width="528pt" height="528pt" viewBox="0 0 528 528" version="1.1">
<g id="surface1">
<path style=" stroke:none;fill-rule:nonzero;fill:#3F51B5;fill-opacity:1;" d="M 110 110 L 154 110 L 154 154 L 110 154 Z "/>
<path style=" stroke:none;fill-rule:nonzero;fill:#3F51B5;fill-opacity:1;" d="M 110 352 L 154 352 L 154 396 L 110 396 Z "/>
<path style=" stroke:none;fill-rule:nonzero;fill:#3F51B5;fill-opacity:1;" d="M 352 110 L 396 110 L 396 154 L 352 154 Z "/>
<path style=" stroke:none;fill-rule:nonzero;fill:#3F51B5;fill-opacity:1;" d="M 220 220 L 264 220 L 264 264 L 220 264 Z "/>
<path style=" stroke:none;fill-rule:nonzero;fill:#3F51B5;fill-opacity:1;" d="M 264 220 L 308 220 L 308 264 L 264 264 Z "/>
<path style=" stroke:none;fill-rule:nonzero;fill:#3F51B5;fill-opacity:1;" d="M 264 308 L 308 308 L 308 352 L 264 352 Z "/>
<path style=" stroke:none;fill-rule:nonzero;fill:#3F51B5;fill-opacity:1;" d="M 418 264 L 462 264 L 462 308 L 418 308 Z "/>
<path style=" stroke:none;fill-rule:nonzero;fill:#3F51B5;fill-opacity:1;" d="M 88 264 L 132 264 L 132 308 L 88 308 Z "/>
<path style=" stroke:none;fill-rule:nonzero;fill:#3F51B5;fill-opacity:1;" d="M 176 264 L 220 264 L 220 308 L 176 308 Z "/>
<path style=" stroke:none;fill-rule:nonzero;fill:#3F51B5;fill-opacity:1;" d="M 132 220 L 176 220 L 176 264 L 132 264 Z "/>
<path style=" stroke:none;fill-rule:nonzero;fill:#3F51B5;fill-opacity:1;" d="M 220 264 L 264 264 L 264 308 L 220 308 Z "/>
<path style=" stroke:none;fill-rule:nonzero;fill:#3F51B5;fill-opacity:1;" d="M 264 352 L 308 352 L 308 418 L 264 418 Z "/>
<path style=" stroke:none;fill-rule:nonzero;fill:#3F51B5;fill-opacity:1;" d="M 330 330 L 374 330 L 374 374 L 330 374 Z "/>
<path style=" stroke:none;fill-rule:nonzero;fill:#3F51B5;fill-opacity:1;" d="M 220 341 L 264 341 L 264 385 L 220 385 Z "/>
<path style=" stroke:none;fill-rule:nonzero;fill:#3F51B5;fill-opacity:1;" d="M 220 418 L 264 418 L 264 462 L 220 462 Z "/>
<path style=" stroke:none;fill-rule:nonzero;fill:#3F51B5;fill-opacity:1;" d="M 330 264 L 374 264 L 374 308 L 330 308 Z "/>
<path style=" stroke:none;fill-rule:nonzero;fill:#3F51B5;fill-opacity:1;" d="M 286 264 L 330 264 L 330 308 L 286 308 Z "/>
<path style=" stroke:none;fill-rule:nonzero;fill:#3F51B5;fill-opacity:1;" d="M 330 418 L 374 418 L 374 462 L 330 462 Z "/>
<path style=" stroke:none;fill-rule:nonzero;fill:#3F51B5;fill-opacity:1;" d="M 286 264 L 330 264 L 330 308 L 286 308 Z "/>
<path style=" stroke:none;fill-rule:nonzero;fill:#3F51B5;fill-opacity:1;" d="M 418 330 L 462 330 L 462 374 L 418 374 Z "/>
<path style=" stroke:none;fill-rule:nonzero;fill:#3F51B5;fill-opacity:1;" d="M 418 418 L 462 418 L 462 462 L 418 462 Z "/>
<path style=" stroke:none;fill-rule:nonzero;fill:#3F51B5;fill-opacity:1;" d="M 374 374 L 418 374 L 418 418 L 374 418 Z "/>
<path style=" stroke:none;fill-rule:nonzero;fill:#3F51B5;fill-opacity:1;" d="M 242 264 L 286 264 L 286 308 L 242 308 Z "/>
<path style=" stroke:none;fill-rule:nonzero;fill:#3F51B5;fill-opacity:1;" d="M 374 220 L 418 220 L 418 264 L 374 264 Z "/>
<path style=" stroke:none;fill-rule:nonzero;fill:#3F51B5;fill-opacity:1;" d="M 286 44 L 286 220 L 462 220 L 462 44 Z M 418 176 L 330 176 L 330 88 L 418 88 Z "/>
<path style=" stroke:none;fill-rule:nonzero;fill:#3F51B5;fill-opacity:1;" d="M 44 220 L 220 220 L 220 44 L 44 44 Z M 88 88 L 176 88 L 176 176 L 88 176 Z "/>
<path style=" stroke:none;fill-rule:nonzero;fill:#3F51B5;fill-opacity:1;" d="M 44 462 L 220 462 L 220 286 L 44 286 Z M 88 330 L 176 330 L 176 418 L 88 418 Z "/>
</g>
</svg>
