<?xml version="1.0" encoding="UTF-8"?>
<svg xmlns="http://www.w3.org/2000/svg" xmlns:xlink="http://www.w3.org/1999/xlink" width="528pt" height="528pt" viewBox="0 0 528 528" version="1.1">
<g id="surface1">
<path style=" stroke:none;fill-rule:nonzero;fill:#FF9100;fill-opacity:1;" d="M 440 495 L 88 495 L 88 33 L 330 33 L 440 143 Z "/>
<path style=" stroke:none;fill-rule:nonzero;fill:#FFE0B2;fill-opacity:1;" d="M 423.5 154 L 319 154 L 319 49.5 Z "/>
<path style=" stroke:none;fill-rule:nonzero;fill:#FFE0B2;fill-opacity:1;" d="M 176.089844 322.992188 L 165.109375 322.992188 L 165.109375 363 L 143 363 L 143 253.515625 L 178.265625 253.515625 C 189.355469 253.515625 197.902344 256.398438 203.949219 262.109375 C 209.988281 267.871094 213.003906 276.035156 213.003906 286.605469 C 213.003906 301.125 207.714844 311.3125 197.140625 317.128906 L 216.316406 361.945313 L 216.316406 363 L 192.554688 363 Z M 165.109375 304.566406 L 177.671875 304.566406 C 182.082031 304.566406 185.394531 303.105469 187.59375 300.191406 C 189.804688 297.265625 190.90625 293.316406 190.90625 288.421875 C 190.90625 277.441406 186.613281 271.964844 178.046875 271.964844 L 165.109375 271.964844 Z "/>
<path style=" stroke:none;fill-rule:nonzero;fill:#FFE0B2;fill-opacity:1;" d="M 280.457031 340.59375 L 250.304688 340.59375 L 244.441406 363 L 221.054688 363 L 255.265625 253.515625 L 275.496094 253.515625 L 309.9375 363 L 286.328125 363 Z M 255.113281 322.179688 L 275.5625 322.179688 L 265.332031 283.140625 Z "/>
<path style=" stroke:none;fill-rule:nonzero;fill:#FFE0B2;fill-opacity:1;" d="M 352.089844 322.992188 L 341.109375 322.992188 L 341.109375 363 L 319 363 L 319 253.515625 L 354.265625 253.515625 C 365.355469 253.515625 373.902344 256.398438 379.949219 262.109375 C 385.988281 267.871094 389.003906 276.035156 389.003906 286.605469 C 389.003906 301.125 383.722656 311.3125 373.140625 317.128906 L 392.316406 361.945313 L 392.316406 363 L 368.554688 363 Z M 341.109375 304.566406 L 353.671875 304.566406 C 358.082031 304.566406 361.394531 303.105469 363.59375 300.191406 C 365.804688 297.265625 366.90625 293.316406 366.90625 288.421875 C 366.90625 277.441406 362.613281 271.964844 354.046875 271.964844 L 341.109375 271.964844 Z "/>
</g>
</svg>
