<?xml version="1.0" encoding="UTF-8"?>
<svg xmlns="http://www.w3.org/2000/svg" xmlns:xlink="http://www.w3.org/1999/xlink" width="528pt" height="528pt" viewBox="0 0 528 528" version="1.1">
<g id="surface1">
<path style=" stroke:none;fill-rule:nonzero;fill:#CFD8DC;fill-opacity:1;" d="M 187 264 L 77 192.136719 C 77 192.136719 88 171.621094 88 151.085938 C 88 130.546875 77 110 77 110 L 187 181.863281 Z "/>
<path style=" stroke:none;fill-rule:nonzero;fill:#CFD8DC;fill-opacity:1;" d="M 187 440 L 77 357.863281 C 77 357.863281 88 347.589844 88 327.0625 C 88 306.535156 77 286 77 286 L 187 357.863281 Z "/>
<path style=" stroke:none;fill-rule:nonzero;fill:#CFD8DC;fill-opacity:1;" d="M 187 352 L 77 269.863281 C 77 269.863281 88 259.589844 88 239.0625 C 88 218.535156 77 198 77 198 L 187 269.863281 Z "/>
<path style=" stroke:none;fill-rule:nonzero;fill:#3F51B5;fill-opacity:1;" d="M 193.863281 374 C 191.453125 374 189.023438 373.21875 187 371.589844 L 70.125 283.589844 C 65.371094 279.785156 64.613281 272.867188 68.410156 268.125 C 72.191406 263.382813 79.132813 262.613281 83.863281 266.410156 L 200.738281 354.410156 C 205.492188 358.214844 206.25 365.132813 202.453125 369.875 C 200.289063 372.582031 197.085938 374 193.863281 374 Z "/>
<path style=" stroke:none;fill-rule:nonzero;fill:#3F51B5;fill-opacity:1;" d="M 462 275 L 176 275 C 176 275 187 294.160156 187 321.707031 C 187 349.25 176 363 176 363 L 462 363 C 462 363 473 352 473 319 C 473 286 462 275 462 275 Z "/>
<path style=" stroke:none;fill-rule:nonzero;fill:#9C27B0;fill-opacity:1;" d="M 193.863281 286 C 191.453125 286 189.023438 285.21875 187 283.589844 L 70.125 195.589844 C 65.371094 191.785156 64.613281 184.867188 68.410156 180.125 C 72.191406 175.382813 79.132813 174.601563 83.863281 178.410156 L 200.738281 266.410156 C 205.492188 270.214844 206.25 277.132813 202.453125 281.875 C 200.289063 284.582031 197.085938 286 193.863281 286 Z "/>
<path style=" stroke:none;fill-rule:nonzero;fill:#9C27B0;fill-opacity:1;" d="M 462 187 L 176 187 C 176 187 187 206.160156 187 233.707031 C 187 261.25 176 275 176 275 L 462 275 C 462 275 473 264 473 231 C 473 198 462 187 462 187 Z "/>
<path style=" stroke:none;fill-rule:nonzero;fill:#8BC34A;fill-opacity:1;" d="M 204.699219 451 C 204.699219 447.777344 203.457031 444.574219 200.738281 442.410156 L 83.863281 354.410156 C 79.132813 350.613281 72.191406 351.394531 68.410156 356.125 C 64.613281 360.878906 65.382813 367.796875 70.125 371.589844 L 175.582031 451 Z "/>
<path style=" stroke:none;fill-rule:nonzero;fill:#8BC34A;fill-opacity:1;" d="M 462 363 L 176 363 C 176 363 187 382.160156 187 409.707031 C 187 437.25 176 451 176 451 L 462 451 C 462 451 473 440 473 407 C 473 374 462 363 462 363 Z "/>
<path style=" stroke:none;fill-rule:nonzero;fill:#689F38;fill-opacity:1;" d="M 462 363 L 176 363 C 176 363 180.851563 371.316406 184.0625 385 L 470.449219 385 C 467.203125 369.148438 462 363 462 363 Z "/>
<path style=" stroke:none;fill-rule:nonzero;fill:#303F9F;fill-opacity:1;" d="M 462 275 L 176 275 C 176 275 180.851563 283.316406 184.0625 297 L 470.449219 297 C 467.203125 281.148438 462 275 462 275 Z "/>
<path style=" stroke:none;fill-rule:nonzero;fill:#FDD835;fill-opacity:1;" d="M 231.375 352 C 232.585938 347.050781 234.664063 336.832031 234.664063 324.5 C 234.664063 312.167969 232.585938 301.949219 231.375 297 L 209 297 C 209.03125 297.097656 212.664063 310.9375 212.664063 324.5 C 212.664063 338.0625 209.023438 351.921875 209 352 Z "/>
<path style=" stroke:none;fill-rule:nonzero;fill:#FDD835;fill-opacity:1;" d="M 231.375 264 C 232.585938 259.050781 234.664063 248.832031 234.664063 236.5 C 234.664063 224.167969 232.585938 213.949219 231.375 209 L 209 209 C 209.03125 209.097656 212.664063 222.9375 212.664063 236.5 C 212.664063 250.0625 209.023438 263.921875 209 264 Z "/>
<path style=" stroke:none;fill-rule:nonzero;fill:#FDD835;fill-opacity:1;" d="M 231.375 440 C 232.585938 435.050781 234.664063 424.832031 234.664063 412.5 C 234.664063 400.167969 232.585938 389.949219 231.375 385 L 209 385 C 209.03125 385.097656 212.664063 398.9375 212.664063 412.5 C 212.664063 426.0625 209.023438 439.921875 209 440 Z "/>
<path style=" stroke:none;fill-rule:nonzero;fill:#7B1FA2;fill-opacity:1;" d="M 470.449219 209 C 467.203125 193.148438 462 187 462 187 L 339.285156 94.5 C 339.285156 94.5 330.691406 88 319 88 C 305.480469 88 77 88 77 88 L 77.199219 88.199219 C 73.734375 88.132813 70.289063 89.507813 68.101563 92.53125 C 64.527344 97.4375 65.613281 104.324219 70.519531 107.886719 L 177.628906 190.058594 C 179.398438 193.632813 182.226563 200.179688 184.304688 209 Z "/>
<path style=" stroke:none;fill-rule:nonzero;fill:#AF7000;fill-opacity:1;" d="M 352 176 L 231 88 L 176 88 L 297 176 C 316.25 189.75 319 193.875 319 209 C 319 224.125 319 418 319 418 C 319 418 319 451 297 451 C 308.617188 451 337.457031 451 352 451 C 374 451 374 418 374 418 C 374 418 374 220 374 209 C 374 187 356.816406 180.816406 352 176 Z "/>
<path style=" stroke:none;fill-rule:nonzero;fill:#FFC107;fill-opacity:1;" d="M 374 297 L 374 341 L 319 341 L 319 297 L 374 297 M 376.75 286 L 316.25 286 C 311.695313 286 308 289.695313 308 294.25 L 308 343.75 C 308 348.304688 311.695313 352 316.25 352 L 376.75 352 C 381.304688 352 385 348.304688 385 343.75 L 385 294.25 C 385 289.695313 381.304688 286 376.75 286 Z "/>
<path style=" stroke:none;fill-rule:nonzero;fill:#5B3B07;fill-opacity:1;" d="M 352 319 C 352 322.039063 349.539063 324.5 346.5 324.5 C 343.460938 324.5 341 322.039063 341 319 C 341 315.960938 343.460938 313.5 346.5 313.5 C 349.539063 313.5 352 315.960938 352 319 Z "/>
<path style=" stroke:none;fill-rule:nonzero;fill:#FFEB3B;fill-opacity:1;" d="M 346.5 319 C 343.464844 319 341 316.535156 341 313.5 L 341 280.5 C 341 277.464844 343.464844 275 346.5 275 C 349.535156 275 352 277.464844 352 280.5 L 352 313.5 C 352 316.535156 349.535156 319 346.5 319 Z "/>
</g>
</svg>
